<?xml version="1.0" standalone="no"?><!DOCTYPE svg PUBLIC "-//W3C//DTD SVG 1.1//EN" "http://www.w3.org/Graphics/SVG/1.1/DTD/svg11.dtd"><svg t="1508118854221" class="icon" style="" viewBox="0 0 1024 1024" version="1.1" xmlns="http://www.w3.org/2000/svg" p-id="6322" xmlns:xlink="http://www.w3.org/1999/xlink" width="128" height="128"><defs><style type="text/css"></style></defs><path d="M109.722472 584.02336c0.971118-128.280642 33.184797-249.729691 80.722486-367.838669 21.236674-52.761668 45.959751-103.921861 71.131037-154.862044 16.124236-32.632211 52.209082-41.943274 79.116919-19.507286 72.109318 60.124356 154.119123 103.992469 237.397828 145.652288 90.425476 45.234227 182.991708 85.555561 279.82922 115.344005 23.592324 7.258311 47.476291 13.260002 72.084759 16.393365 35.821857 4.559852 56.679907 38.438451 41.911552 71.02052C905.437186 536.882714 828.660568 677.215856 715.352943 794.120402c-91.182722 94.078679-197.222827 162.659637-327.597153 189.248202-35.107589 7.15905-70.598918 9.635451-106.178251 11.06808-16.953114 0.685615-30.978549-7.30743-41.511439-20.937868-73.133647-94.65787-116.187209-201.219861-127.161145-320.550667C110.793874 630.021997 108.747261 607.123474 109.722472 584.02336zM392.39546 896.681266c45.676295-9.501398 83.147722-35.044144 119.81176-62.046125 1.37737-1.01512 2.721994-2.172479 3.773953-3.5038 2.882654-3.663436 5.698792-7.616468 3.820002-12.545734-1.937119-5.072529-6.461155-5.705955-11.326976-5.867638-9.178033-0.303922-18.539238 0.035816-27.479865-1.681292-94.536097-18.123776-178.741917-57.246819-248.706385-124.405381-7.426133-7.125281-11.024078-4.015454-14.056134 2.451842-2.111081 4.508687-3.868097 10.287297-2.954285 14.942317 10.060123 51.362808 21.614274 102.340853 51.311643 146.806577 22.969131 34.392298 55.773258 49.955762 96.866165 49.732681C373.109208 899.30707 382.892015 898.659317 392.39546 896.681266zM720.782605 610.159624c11.239995-4.89038 11.868305-10.67513 8.414647-21.307282-30.503734-93.943602-150.642952-96.617501-208.918193-46.242184-3.953032 3.415796-5.646604 6.236028-1.706875 11.195993 33.596166 42.291199 72.811306 74.869175 130.196271 76.703963C675.036725 631.638821 697.609837 620.238167 720.782605 610.159624zM413.594271 509.518482c22.103414 0.157589 22.592554-0.168846 19.573801-21.972431-6.040576-43.62252-26.163893-79.343069-62.157665-104.960517-33.929764-24.150026-70.810742-27.431769-109.334127-11.661597-5.820566 2.385327-11.003612 4.050246-9.060353 13.322423 9.321296 44.413536 27.248597 82.421174 69.679989 105.038288 26.042119 13.880125 53.757345 19.060101 81.562621 20.230764C407.854547 509.514389 410.724921 509.498016 413.594271 509.518482z" p-id="6323"></path></svg>